<svg xmlns="http://www.w3.org/2000/svg" viewBox="0 0 144 67"><defs><style>.cls-1,.cls-3{fill:none;}.cls-1,.cls-2,.cls-3{stroke:#000;stroke-miterlimit:10;}.cls-1{stroke-width:2px;}.cls-4{font-size:51.4px;font-family:ArialMT, Arial;}</style></defs><title>Asset 7</title><g id="Layer_2" data-name="Layer 2"><g id="Layer_2-2" data-name="Layer 2"><path d="M32.5,3A31.5,31.5,0,1,1,1,34.46,31.53,31.53,0,0,1,32.5,3m0-1A32.5,32.5,0,1,0,65,34.46,32.5,32.5,0,0,0,32.5,2Z"/><polyline class="cls-1" points="8.54 39.14 23.41 24.82 26.72 33.63 34.43 19.86 43.24 23.72 49.38 15.22"/><polygon class="cls-1" points="51.28 16.66 46.71 13.58 51.56 11.16 51.28 16.66"/><rect class="cls-2" x="10.19" y="54.01" width="44.62" height="1.1"/><rect class="cls-2" x="18.97" y="35.28" width="5.51" height="17.08"/><rect class="cls-2" x="12" y="40.79" width="5.51" height="11.57"/><rect class="cls-2" x="32.96" y="30.88" width="5.51" height="21.48"/><rect class="cls-2" x="25.95" y="40.79" width="5.51" height="11.57"/><rect class="cls-2" x="47.1" y="25.37" width="5.51" height="26.99"/><rect class="cls-2" x="39.97" y="33.63" width="5.51" height="18.73"/><circle class="cls-3" cx="111" cy="33" r="32.5"/><text class="cls-4" transform="translate(97.33 50.31)">$</text></g></g></svg>