<svg xmlns="http://www.w3.org/2000/svg" viewBox="0 0 66 66"><defs><style>.cls-1{fill:none;stroke:#000;stroke-miterlimit:10;}</style></defs><title>Asset 11</title><g id="Layer_2" data-name="Layer 2"><g id="Layer_4" data-name="Layer 4"><circle class="cls-1" cx="33" cy="33" r="32.5"/><path d="M16.33,48.27a1,1,0,1,1,1.05-1A1,1,0,0,1,16.33,48.27Z"/><path d="M16.33,46.69a.54.54,0,1,1-.54.54.55.55,0,0,1,.54-.54m0-1a1.54,1.54,0,1,0,1.55,1.54,1.54,1.54,0,0,0-1.55-1.54Z"/><rect x="21.04" y="47.09" width="30.46" height="0.27"/><polygon points="52 46.59 20.54 46.59 20.54 47.86 52 47.86 52 46.59 52 46.59"/><rect x="20.63" y="24.7" width="30.88" height="0.27"/><polygon points="52 24.2 20.13 24.2 20.13 25.47 52 25.47 52 24.2 52 24.2"/><rect x="20.63" y="30.36" width="30.88" height="0.27"/><polygon points="52 29.86 20.13 29.86 20.13 31.14 52 31.14 52 29.86 52 29.86"/><rect x="20.63" y="36.03" width="30.88" height="0.27"/><polygon points="52 35.53 20.13 35.53 20.13 36.8 52 36.8 52 35.53 52 35.53"/><rect x="20.63" y="41.7" width="30.88" height="0.27"/><polygon points="52 41.2 20.13 41.2 20.13 42.47 52 42.47 52 41.2 52 41.2"/><rect x="20.63" y="19.03" width="30.88" height="0.27"/><polygon points="52 18.53 20.13 18.53 20.13 19.8 52 19.8 52 18.53 52 18.53"/><path d="M16.33,20.21a1,1,0,1,1,1.05-1A1,1,0,0,1,16.33,20.21Z"/><path d="M16.33,18.62a.55.55,0,0,1,.55.55.55.55,0,0,1-1.09,0,.55.55,0,0,1,.54-.55m0-1a1.55,1.55,0,1,0,1.55,1.55,1.54,1.54,0,0,0-1.55-1.55Z"/><path d="M16.33,42.88a1,1,0,1,1,1.05-1.05A1,1,0,0,1,16.33,42.88Z"/><path d="M16.33,41.29a.55.55,0,0,1,.55.54.55.55,0,1,1-1.09,0,.54.54,0,0,1,.54-.54m0-1a1.55,1.55,0,1,0,1.55,1.54,1.54,1.54,0,0,0-1.55-1.54Z"/><path d="M16.33,37.21a1,1,0,1,1,1.05-1A1,1,0,0,1,16.33,37.21Z"/><path d="M16.33,35.62a.55.55,0,0,1,.55.55.55.55,0,0,1-1.09,0,.55.55,0,0,1,.54-.55m0-1a1.55,1.55,0,1,0,1.55,1.55,1.54,1.54,0,0,0-1.55-1.55Z"/><path d="M16.33,31.54a1,1,0,1,1,1.05-1A1,1,0,0,1,16.33,31.54Z"/><path d="M16.33,30a.54.54,0,1,1-.54.54.55.55,0,0,1,.54-.54m0-1a1.54,1.54,0,1,0,1.55,1.54A1.54,1.54,0,0,0,16.33,29Z"/><path d="M16.33,25.88a1,1,0,1,1,1.05-1.05A1,1,0,0,1,16.33,25.88Z"/><path d="M16.33,24.29a.55.55,0,0,1,.55.54.55.55,0,1,1-1.09,0,.54.54,0,0,1,.54-.54m0-1a1.55,1.55,0,1,0,1.55,1.54,1.54,1.54,0,0,0-1.55-1.54Z"/></g></g></svg>