<svg xmlns="http://www.w3.org/2000/svg" viewBox="0 0 65 65"><defs><style>.cls-1{fill:#fff;stroke-width:2px;}.cls-1,.cls-2{stroke:#000;stroke-miterlimit:10;}</style></defs><title>Asset 4</title><g id="Layer_2" data-name="Layer 2"><g id="Layer_2-2" data-name="Layer 2"><path d="M32.5,1A31.5,31.5,0,1,1,1,32.5,31.53,31.53,0,0,1,32.5,1m0-1A32.5,32.5,0,1,0,65,32.5,32.5,32.5,0,0,0,32.5,0Z"/><polyline class="cls-1" points="8.54 37.18 23.41 22.86 26.72 31.67 34.43 17.9 43.24 21.76 50.4 11.84"/><polygon class="cls-1" points="51.28 14.71 46.71 11.62 51.56 9.2 51.28 14.71"/><rect class="cls-2" x="10.19" y="52.06" width="44.62" height="1.1"/><rect class="cls-2" x="20.11" y="33.33" width="5.51" height="17.08"/><rect class="cls-2" x="13.5" y="38.83" width="5.51" height="11.57"/><rect class="cls-2" x="33.33" y="28.92" width="5.51" height="21.48"/><rect class="cls-2" x="26.72" y="38.83" width="5.51" height="11.57"/><rect class="cls-2" x="46.55" y="23.41" width="5.51" height="26.99"/><rect class="cls-2" x="39.94" y="31.67" width="5.51" height="18.73"/></g></g></svg>