<svg xmlns="http://www.w3.org/2000/svg" viewBox="0 0 70 82"><defs><style>.cls-1{fill:#fff;}.cls-2{font-size:6px;font-family:MyriadPro-Regular, Myriad Pro;}.cls-3{letter-spacing:0em;}.cls-4{letter-spacing:0.03em;}.cls-5{letter-spacing:0em;}.cls-6{letter-spacing:-0.01em;}.cls-7{letter-spacing:0em;}.cls-8{letter-spacing:-0.01em;}.cls-9{letter-spacing:0.02em;}.cls-10{letter-spacing:0em;}.cls-11{letter-spacing:-0.01em;}.cls-12{letter-spacing:-0.03em;}.cls-13{letter-spacing:-0.01em;}</style></defs><title>Logo</title><g id="Layer_2" data-name="Layer 2"><g id="Layer_1-2" data-name="Layer 1"><rect class="cls-1" x="0.5" y="0.5" width="69" height="81"/><path d="M69,1V81H1V1H69m1-1H0V82H70V0Z"/><path d="M13.66,29.15a9.07,9.07,0,0,1-3-.46,7.51,7.51,0,0,1-2.43-1.38l1.3-1.6a6,6,0,0,0,1.88,1.11,6.63,6.63,0,0,0,2.22.37,4.37,4.37,0,0,0,2.51-.61,1.89,1.89,0,0,0,.89-1.69h0a1.75,1.75,0,0,0-.45-1.3,2.69,2.69,0,0,0-1.18-.68,14.89,14.89,0,0,0-1.61-.36c-.55-.1-1.11-.22-1.68-.35a5.88,5.88,0,0,1-1.58-.6A3.16,3.16,0,0,1,9.4,20.4,4.23,4.23,0,0,1,9,18.32H9a4,4,0,0,1,1.39-3.23,6,6,0,0,1,3.9-1.14,7.51,7.51,0,0,1,2.35.38,8.34,8.34,0,0,1,2.24,1.18l-1.19,1.66a5.65,5.65,0,0,0-3.4-1.25,4,4,0,0,0-2.37.61A2,2,0,0,0,11,18.24h0a1.62,1.62,0,0,0,.49,1.28,3.09,3.09,0,0,0,1.28.65c.53.15,1.1.28,1.71.4s1.1.24,1.64.4a5.16,5.16,0,0,1,1.49.66,3.14,3.14,0,0,1,1.08,1.2,4.16,4.16,0,0,1,.41,2v0A3.83,3.83,0,0,1,17.7,28,6.41,6.41,0,0,1,13.66,29.15Z"/><path d="M21.08,20.24V18.36h4.8v1.88ZM24.67,29a2.29,2.29,0,0,1-1.9-.73,3.25,3.25,0,0,1-.59-2.09V15.26h2.09V26.2a1,1,0,0,0,.16.6.52.52,0,0,0,.45.21h1v2Z"/><path d="M32.83,29.15a4.25,4.25,0,0,1-3.24-1.21,4.81,4.81,0,0,1-1.14-3.42V22.79a4.73,4.73,0,0,1,1.14-3.39,4.29,4.29,0,0,1,3.24-1.2,4.29,4.29,0,0,1,3.25,1.2,4.73,4.73,0,0,1,1.14,3.39v1.76A4.75,4.75,0,0,1,36.08,28,4.29,4.29,0,0,1,32.83,29.15Zm0-2a2.15,2.15,0,0,0,1.71-.68,2.82,2.82,0,0,0,.6-1.93V22.79a2.8,2.8,0,0,0-.6-1.92,2.19,2.19,0,0,0-1.71-.68,2.14,2.14,0,0,0-1.69.68,2.84,2.84,0,0,0-.59,1.92v1.76a2.87,2.87,0,0,0,.59,1.93A2.11,2.11,0,0,0,32.82,27.16Z"/><path d="M44.49,29.15a4.59,4.59,0,0,1-3.4-1.21,4.62,4.62,0,0,1-1.2-3.41V22.78a4.54,4.54,0,0,1,1.2-3.38,4.62,4.62,0,0,1,3.4-1.2,5.45,5.45,0,0,1,2.25.45,3.9,3.9,0,0,1,1.61,1.25l-1.51,1.36a3,3,0,0,0-2.32-1.07,2.51,2.51,0,0,0-1.87.68A2.59,2.59,0,0,0,42,22.78v1.75a2.82,2.82,0,0,0,.67,2,2.42,2.42,0,0,0,1.87.72,2.85,2.85,0,0,0,2.32-1.14l1.51,1.35a3.86,3.86,0,0,1-1.61,1.24A5.61,5.61,0,0,1,44.49,29.15Z"/><path d="M50.4,29V14.09h2.09V29Zm.77-1.56L51.3,25l5.48-6.6h2.46ZM57.49,29l-3.72-6.14,1.35-1.4L59.76,29Z"/><rect x="0.5" y="38.5" width="69" height="34"/><path d="M69,39V72H1V39H69m1-1H0V73H70V38Z"/><path class="cls-1" d="M9,48.25v-2H19.48v2Zm4.22,12.92V47.48h2.09V61.17Z"/><path class="cls-1" d="M20.1,61.17V50.52h2.09V61.17ZM26,53.05a2,2,0,0,0-1.67-.69,1.9,1.9,0,0,0-2.09,2.07l-.22-2a3.93,3.93,0,0,1,1.27-1.48A3,3,0,0,1,25,50.37a3.34,3.34,0,0,1,2.35.83Z"/><path class="cls-1" d="M32.46,61.32a4.51,4.51,0,0,1-2.93-.81,3.61,3.61,0,0,1-.09-4.85,3.94,3.94,0,0,1,2.7-.79h3l.14,1.68H32.15a1.75,1.75,0,0,0-1.22.37A1.38,1.38,0,0,0,30.52,58a1.36,1.36,0,0,0,.54,1.2,2.78,2.78,0,0,0,1.63.39,4.7,4.7,0,0,0,1.78-.26.85.85,0,0,0,.6-.8l.21,1.5a2.43,2.43,0,0,1-.68.71,3.14,3.14,0,0,1-1,.41A4.8,4.8,0,0,1,32.46,61.32Zm2.61-.15V54.42a2.27,2.27,0,0,0-.56-1.63,2.12,2.12,0,0,0-1.59-.58A3.8,3.8,0,0,0,30.6,53l-1.53-1a3.92,3.92,0,0,1,1.59-1.14,5.78,5.78,0,0,1,2.2-.4,4.33,4.33,0,0,1,3.1,1,3.86,3.86,0,0,1,1.1,2.93v6.84Z"/><path class="cls-1" d="M43.61,61.35a3.37,3.37,0,0,1-2.72-1.13,4.81,4.81,0,0,1-1-3.2V54.68a4.93,4.93,0,0,1,.93-3.21,3.26,3.26,0,0,1,2.65-1.13,3.13,3.13,0,0,1,1.72.49,3.61,3.61,0,0,1,1.27,1.38l-.21,2.18A2.58,2.58,0,0,0,46,53.23a1.72,1.72,0,0,0-.71-.73,2.34,2.34,0,0,0-1.14-.25,2,2,0,0,0-1.6.64A2.66,2.66,0,0,0,42,54.71V57a2.57,2.57,0,0,0,.57,1.79,2,2,0,0,0,1.6.63,2.24,2.24,0,0,0,1.14-.26,1.66,1.66,0,0,0,.71-.75,2.64,2.64,0,0,0,.25-1.18l.14,2.25a3.2,3.2,0,0,1-1,1.28A2.82,2.82,0,0,1,43.61,61.35Zm2.68-.18V46.26h2.09V61.17Z"/><path class="cls-1" d="M56.12,61.32a4.63,4.63,0,0,1-3.45-1.24,4.82,4.82,0,0,1-1.22-3.53v-1.2a5.28,5.28,0,0,1,1.18-3.68,4.2,4.2,0,0,1,3.3-1.3,3.67,3.67,0,0,1,3.12,1.48A6.86,6.86,0,0,1,60.15,56v.7H53V55h5.19a3.64,3.64,0,0,0-.67-2,1.91,1.91,0,0,0-1.56-.72A2.27,2.27,0,0,0,54.1,53a3.28,3.28,0,0,0-.66,2.2v1.35a2.78,2.78,0,0,0,.7,2,2.61,2.61,0,0,0,2,.71,3.38,3.38,0,0,0,2.38-1l1.37,1.37A5.57,5.57,0,0,1,58.1,60.9,5,5,0,0,1,56.12,61.32Z"/><text class="cls-2" transform="translate(3 78.67) scale(0.84 1)"><tspan class="cls-3">C</tspan><tspan class="cls-4" x="3.46" y="0">r</tspan><tspan class="cls-5" x="5.57" y="0">yp</tspan><tspan class="cls-6" x="11.81" y="0">t</tspan><tspan x="13.76" y="0">ocu</tspan><tspan class="cls-7" x="23.05" y="0">r</tspan><tspan class="cls-8" x="25.04" y="0">r</tspan><tspan x="26.94" y="0">en</tspan><tspan class="cls-9" x="33.28" y="0">c</tspan><tspan class="cls-5" x="36.07" y="0">y | </tspan><tspan class="cls-10" x="42.88" y="0">S</tspan><tspan class="cls-11" x="45.82" y="0">t</tspan><tspan x="47.77" y="0">ock | </tspan><tspan class="cls-12" x="60.54" y="0">F</tspan><tspan x="63.28" y="0">o</tspan><tspan class="cls-13" x="66.57" y="0">r</tspan><tspan class="cls-10" x="68.47" y="0">e</tspan><tspan x="71.46" y="0">x</tspan></text></g></g></svg>